<svg width="119.041" height="30.16" viewBox="0 0 119.041 30.16" xmlns="http://www.w3.org/2000/svg"><g id="svgGroup" stroke-linecap="round" fill-rule="evenodd" font-size="9pt" stroke="#ff87e9" stroke-width="0.25mm" fill="#ff87e9" style="stroke:#ff87e9;stroke-width:0.25mm;fill:#ff87e9"><path d="M 15.08 23.399 L 15.08 20.997 L 5.071 20.997 L 14.813 6.095 L 14.813 2.936 L 0.534 2.936 L 0.534 5.338 L 9.742 5.338 L 0 20.24 L 0 23.399 L 15.08 23.399 Z M 54.893 8.808 L 53.247 7.385 L 50.979 7.385 L 50.979 23.399 L 55.961 23.399 L 55.961 10.632 A 5.456 5.456 0 0 1 56.969 10.085 A 3.86 3.86 0 0 1 58.43 9.787 A 3.262 3.262 0 0 1 58.99 9.831 Q 59.753 9.965 60.053 10.498 A 2.41 2.41 0 0 1 60.264 11.025 Q 60.412 11.547 60.444 12.31 A 10.664 10.664 0 0 1 60.454 12.767 L 60.454 23.399 L 65.391 23.399 L 65.391 12.144 A 6.644 6.644 0 0 0 65.19 10.467 A 4.922 4.922 0 0 0 64.124 8.43 A 3.968 3.968 0 0 0 62.3 7.271 Q 61.4 6.984 60.231 6.984 A 8.313 8.313 0 0 0 57.167 7.594 Q 56.109 8.011 55.036 8.713 A 14.412 14.412 0 0 0 54.893 8.808 Z M 23.443 30.16 L 31.05 7.385 L 28.203 7.385 L 24.822 17.838 L 20.552 7.385 L 15.614 7.385 L 22.687 23.933 L 19.795 29.76 L 23.443 30.16 Z M 75.311 30.16 L 82.918 7.385 L 80.071 7.385 L 76.69 17.838 L 72.42 7.385 L 67.482 7.385 L 74.555 23.933 L 71.664 29.76 L 75.311 30.16 Z M 42.082 21.53 L 43.327 23.399 L 46.619 23.399 L 46.619 12.545 A 6.417 6.417 0 0 0 46.197 10.12 Q 45.067 7.336 40.913 7.024 A 14.668 14.668 0 0 0 39.813 6.984 A 13.707 13.707 0 0 0 38.132 7.08 Q 36.303 7.307 35.249 8.071 A 3.601 3.601 0 0 0 34.92 8.341 A 4.764 4.764 0 0 0 33.794 9.973 Q 33.493 10.666 33.328 11.526 A 10.7 10.7 0 0 0 33.185 12.545 L 37.278 13.034 Q 37.456 9.431 39.68 9.431 Q 41.377 9.431 41.635 11.447 A 6.22 6.22 0 0 1 41.681 12.233 L 41.681 13.835 L 38.923 14.369 A 24.936 24.936 0 0 0 37.201 14.732 Q 35.531 15.152 34.507 15.72 A 5.091 5.091 0 0 0 33.941 16.081 A 3.542 3.542 0 0 0 32.517 18.573 A 5.285 5.285 0 0 0 32.473 19.262 A 5.573 5.573 0 0 0 32.644 20.68 A 3.986 3.986 0 0 0 33.741 22.576 A 4.276 4.276 0 0 0 35.989 23.702 A 6.102 6.102 0 0 0 37.1 23.799 A 6.894 6.894 0 0 0 39.495 23.399 A 5.998 5.998 0 0 0 42.082 21.53 Z M 114.502 21.53 L 115.747 23.399 L 119.039 23.399 L 119.039 12.545 A 6.417 6.417 0 0 0 118.617 10.12 Q 117.487 7.336 113.333 7.024 A 14.668 14.668 0 0 0 112.233 6.984 A 13.707 13.707 0 0 0 110.552 7.08 Q 108.723 7.307 107.669 8.071 A 3.601 3.601 0 0 0 107.34 8.341 A 4.764 4.764 0 0 0 106.213 9.973 Q 105.913 10.666 105.748 11.526 A 10.7 10.7 0 0 0 105.605 12.545 L 109.698 13.034 Q 109.875 9.431 112.1 9.431 Q 113.797 9.431 114.055 11.447 A 6.22 6.22 0 0 1 114.101 12.233 L 114.101 13.835 L 111.343 14.369 A 24.936 24.936 0 0 0 109.621 14.732 Q 107.951 15.152 106.927 15.72 A 5.091 5.091 0 0 0 106.361 16.081 A 3.542 3.542 0 0 0 104.937 18.573 A 5.285 5.285 0 0 0 104.893 19.262 A 5.573 5.573 0 0 0 105.064 20.68 A 3.986 3.986 0 0 0 106.161 22.576 A 4.276 4.276 0 0 0 108.409 23.702 A 6.102 6.102 0 0 0 109.52 23.799 A 6.894 6.894 0 0 0 111.915 23.399 A 5.998 5.998 0 0 0 114.502 21.53 Z M 103.87 22.821 L 103.203 20.596 Q 102.161 21.074 101.458 21.085 A 2.107 2.107 0 0 1 101.423 21.086 A 1.205 1.205 0 0 1 100.891 20.976 Q 100.384 20.729 100.289 19.928 A 3.398 3.398 0 0 1 100.267 19.529 L 100.267 9.92 L 103.292 9.92 L 103.292 7.385 L 100.267 7.385 L 100.267 3.514 L 95.285 5.205 L 95.285 7.385 L 92.883 7.385 L 92.883 9.92 L 95.285 9.92 L 95.285 18.55 A 13.032 13.032 0 0 0 95.349 19.901 Q 95.547 21.793 96.352 22.598 Q 97.438 23.684 99.379 23.788 A 7.863 7.863 0 0 0 99.8 23.799 A 8.893 8.893 0 0 0 102.505 23.398 A 7.998 7.998 0 0 0 103.87 22.821 Z M 85.187 23.399 L 90.169 23.399 L 90.169 7.385 L 85.187 7.385 L 85.187 23.399 Z M 87.7 5.917 A 2.853 2.853 0 0 0 89.769 5.094 A 2.761 2.761 0 0 0 90.61 3.162 A 3.68 3.68 0 0 0 90.614 3.003 A 3.135 3.135 0 0 0 90.393 1.81 A 2.921 2.921 0 0 0 89.769 0.868 A 2.795 2.795 0 0 0 87.736 0.001 A 3.538 3.538 0 0 0 87.678 0 A 2.938 2.938 0 0 0 86.47 0.244 A 2.841 2.841 0 0 0 85.587 0.868 A 2.888 2.888 0 0 0 84.742 2.958 A 2.846 2.846 0 0 0 85.583 5.022 A 3.454 3.454 0 0 0 85.609 5.049 A 2.846 2.846 0 0 0 87.662 5.916 A 3.43 3.43 0 0 0 87.7 5.917 Z M 39.68 16.237 L 41.681 15.837 L 41.681 19.796 A 6.876 6.876 0 0 1 40.982 20.451 Q 40.081 21.176 39.244 21.217 A 2.043 2.043 0 0 1 39.146 21.219 A 3.569 3.569 0 0 1 38.276 21.123 Q 37.144 20.837 36.928 19.709 A 3.088 3.088 0 0 1 36.877 19.128 A 2.702 2.702 0 0 1 37.239 17.71 Q 37.83 16.727 39.383 16.31 A 6.955 6.955 0 0 1 39.68 16.237 Z M 112.1 16.237 L 114.101 15.837 L 114.101 19.796 A 6.876 6.876 0 0 1 113.402 20.451 Q 112.501 21.176 111.664 21.217 A 2.043 2.043 0 0 1 111.566 21.219 A 3.569 3.569 0 0 1 110.696 21.123 Q 109.564 20.837 109.348 19.709 A 3.088 3.088 0 0 1 109.297 19.128 A 2.702 2.702 0 0 1 109.659 17.71 Q 110.249 16.727 111.803 16.31 A 6.955 6.955 0 0 1 112.1 16.237 Z" vector-effect="non-scaling-stroke"/></g></svg>